# xmcd
#
# Track frame offsets:
#	150
#	23055
#	43070
#	58915
#	74872
#	106630
#	122825
#	136235
#	152862
#	172197
#	195012
#	219980
#	234495
#	250380
#
# Disc length: 3646 seconds
#
# Revision: 1
# Processed by: cddbd v1.5.2PL0 Copyright (c) Steve Scherf et al.
# Submitted via: audiograbber 1.83.01
#
DISCID=c80e3c0e
DTITLE=De Dopegezinde Gemeente - Ver van alles
DYEAR=1995
DGENRE=Pop
TTITLE0=De Dopegezinde Gemeente  - Ketelbinkie
TTITLE1=De Dopegezinde Gemeente - Bandoeng
TTITLE2=De Dopegezinde Gemeente - Eenmaal
TTITLE3=De Dopegezinde Gemeente - Ouwe makker
TTITLE4=De Dopegezinde Gemeente - Die mamme ist gegangen
TTITLE5=De Dopegezinde Gemeente - Skoda lasky
TTITLE6=De Dopegezinde Gemeente - Adriaan
TTITLE7=De Dopegezinde Gemeente - Mooie rijke vrouw
TTITLE8=De Dopegezinde Gemeente - La Mamma
TTITLE9=De Dopegezinde Gemeente - Armoe and vuil
TTITLE10=De Dopegezinde Gemeente - Burgerij
TTITLE11=De Dopegezinde Gemeente - Nieuw Amsterdam freilach
TTITLE12=De Dopegezinde Gemeente - Leidscheplein
TTITLE13=De Dopegezinde Gemeente - Amsterdam huilt
EXTD=
EXTT0=
EXTT1=
EXTT2=
EXTT3=
EXTT4=
EXTT5=
EXTT6=
EXTT7=
EXTT8=
EXTT9=
EXTT10=
EXTT11=
EXTT12=
EXTT13=
PLAYORDER=
